<svg width="2644" height="229" viewBox="0 0 2644 229" fill="none" xmlns="http://www.w3.org/2000/svg">
<path fill-rule="evenodd" clip-rule="evenodd" d="M0 84.8535L110.167 96.8658C220.333 108.878 440.667 132.902 661 114.884C881.333 96.8658 1101.67 36.8047 1322 12.7803C1542.33 -11.2441 1762.67 0.768124 1983 30.7986C2203.33 60.8291 2423.67 108.878 2533.83 132.902L2644 156.927V229H2533.83C2423.67 229 2203.33 229 1983 229C1762.67 229 1542.33 229 1322 229C1101.67 229 881.333 229 661 229C440.667 229 220.333 229 110.167 229H0V84.8535Z" fill="#FFC288"/>
</svg>
